<?xml version="1.0" encoding="utf-8"?>
<svg id="svg2" viewBox="0 0 500 670" xmlns="http://www.w3.org/2000/svg">
  <desc>Source: openclipart.org/detail/209545</desc>
  <path id="path222" style="fill: rgb(255, 255, 255);" d="M 96.878 426.786 C 107.111 427.17 114.523 430.224 119.203 435.826 C 123.89 440.512 124.836 445.341 122.023 450.497 C 119.203 454.714 113.665 456.83 105.235 456.83 C 97.283 456.354 90.329 454.254 84.236 450.497 C 78.706 446.769 77.519 441.847 80.814 435.826 C 84.472 429.734 89.869 426.786 96.878 426.786 Z"/>
  <path d="M 86.399 85.396 C 51.099 85.396 22.399 114.096 22.399 149.396 L 22.399 469.396 C 22.399 504.696 51.099 533.396 86.399 533.396 L 406.399 533.396 C 441.699 533.396 470.399 504.696 470.399 469.396 L 470.399 149.396 C 470.399 114.096 441.699 85.396 406.399 85.396 L 86.399 85.396 Z M 359.399 262.396 L 231.399 390.396 C 221.999 399.796 206.799 399.796 197.499 390.396 L 133.499 326.396 C 124.099 316.996 124.099 301.796 133.499 292.496 C 142.899 283.196 158.099 283.096 167.399 292.496 L 214.399 339.496 L 325.399 228.396 C 334.799 218.996 349.999 218.996 359.299 228.396 C 368.599 237.796 368.699 252.996 359.299 262.296 L 359.399 262.396 Z" style="fill: rgba(74, 108, 247, 0.66);"/>
</svg>