<?xml version="1.0" encoding="UTF-8"?>
<svg version="1.1" viewBox="0 0 2000 2000" width="2000" height="2000" xmlns="http://www.w3.org/2000/svg">
<path transform="translate(1281,385)" d="m0 0h9l14 8 15 10 13 9 17 12 10 8 14 11 14 12 15 13 16 15 17 17 7 8 8 9 7 8 10 12 13 17 10 13 12 17 13 20 9 15 12 21 12 23 13 28 13 33 9 25 6 19 9 34 7 34 3 17 2 15 4 38 1 52-1 45-2 15-1 16-2 10-2 17-6 32-7 29-8 28-10 30-11 28-15 33-8 16-9 17-8 14-9 15-7 11-13 19-8 11-14 19-12 14-8 10-12 13-1 2h-2l-2 4-33 33-8 7-12 11-14 11-11 9-13 10-12 8-11 8-22 14-13 8-11 6-16 9-30 15-28 12-29 11-24 8-28 8-34 8-15 3-13 2-20 3-6 1-17 1-14 2-52 1-45-1-15-2-17-1-29-5-14-2-29-6-36-10-20-6-25-9-20-8-18-8-14-6-15-8-16-8-24-14-13-8-11-7-19-13-8-6-17-13-11-9-10-8-11-10-8-7-13-12-20-20-7-8-9-10-7-8-8-10-11-14-10-13-6-8-10-15-11-17-8-13-1-3v-8l3-6 8-5h8l32 18 16 8 30 14 25 10 20 7 15 5 19 6 37 9 39 7 22 3 36 3h74l42-4 25-4 29-5 19-5 9-2 18-5 36-12 28-11 27-12 26-13 21-12 15-9 11-7 15-10 15-11 12-9 14-11 12-11 8-6 8-8 8-7 24-24 7-8 9-10 7-8 12-15 10-13 11-15 10-15 10-16 15-25 18-35 12-27 7-17 7-20 6-17 5-18 4-14 6-26 4-20 3-18 3-21 2-25 1-8v-80l-2-17-2-24-5-31-7-34-7-27-9-29-10-27-12-29-14-29-13-24-8-14-1-3v-7l4-7zm47 63 2 7 3 4 14 34 9 25 7 21 8 30 8 35 3 16 3 19 2 19 1 6 2 33 1 10v47l-2 25-1 20-2 12-2 18-3 19-5 24-4 18-10 35-12 36-10 25-9 20-12 25-13 25-5 8-9 15-7 11-12 18-8 11-9 12-10 13-11 13-7 8-11 12-7 8-15 16-16 15-8 7-13 12-13 10-7 6-15 11-11 8-17 12-18 11-15 9-14 8-27 14-23 11-24 10-11 4-8 3-32 11-42 11-22 5-37 6-18 2-7 1-31 2-10 1h-51l-22-2-18-1-13-2-18-2-18-3-31-6-27-7-11-3-20-6-20-7-21-8-18-7-16-8h-4l2 4 8 10 8 11 10 11 8 10 10 10 1 2h2l1 3h2l2 4 18 18 8 7 9 9 10 8 10 9 24 18 14 10 15 10 16 10 15 9 26 14 16 8 19 9 35 14 33 11 32 9 27 6 23 4 20 3 27 3 22 1 9 1h48l8-1 23-1 35-4 19-3 25-5 22-5 32-9 18-6 19-7 30-12 15-7 22-11 20-11 17-10 13-8 22-15 11-8 12-9 22-18 16-14 17-16 16-16 7-8 7-7 8-10 9-10 9-12 7-9 8-11 6-8 6-9 7-11 13-21 6-11 6-10 8-17 8-16 12-26 7-20 6-16 6-19 6-20 5-22 5-23 6-36 3-26 2-36v-38l-2-40-2-14-2-19-3-19-5-24-2-9-6-25-7-23-9-27-15-37-13-28-12-22-12-21-10-16-8-12-12-17-11-15-18-22-11-13-11-11-7-8-19-19h-2v-2l-8-7-8-8-9-7h-2v-2l-10-8-8-6h-2l-1-3-4-3h-2v-2z" fill="#FEFEFE"/>
</svg>
